<svg width="60" height="60" viewBox="0 0 60 60" fill="none" xmlns="http://www.w3.org/2000/svg">
<path fill-rule="evenodd" clip-rule="evenodd" d="M5.7556 13.1142V26.2283H2.8778H0V29.0963C0 31.24 0.0957247 31.9536 0.378658 31.9219C0.587071 31.8988 1.88693 31.8936 3.26736 31.9108L5.77741 31.9414L5.69077 34.4734L5.60414 37.0053L2.80207 37.0801L0 37.1546V40.0016V42.8482H2.8778H5.7556V51.4241V60L10.8296 59.9288L15.9036 59.8577L15.9836 51.3714C16.0554 43.7358 16.1133 42.8765 16.5616 42.8018C16.8357 42.7558 20.4839 42.7514 24.6688 42.7916L32.2777 42.8649L37.2678 51.2758L42.2582 59.6868L44.9845 59.8611C46.484 59.9569 49.1422 59.9953 50.8916 59.9465L54.0723 59.8577L54.1523 51.3626L54.232 42.8677L57.0301 42.7929L59.8279 42.7184L59.914 39.9268L60 37.1351H57.1119H54.2238V34.5481V31.9609L57.0259 31.8864L59.8279 31.8116L59.914 29.0199L60 26.2283H57.1119H54.2238V13.1142V0H49.0741H43.9243V13.1207V26.2413L39.0533 26.1699L34.1822 26.0985L31.5264 21.6838C30.0654 19.2557 26.57 13.3835 23.7585 8.63457L18.6469 0H12.2013H5.7556V13.1142ZM19.2152 20.8235C20.8095 23.4881 22.1136 25.7941 22.1136 25.9481C22.1136 26.1299 21.0491 26.2283 19.0844 26.2283H16.0551V20.9912C16.0551 18.111 16.1142 15.8048 16.186 15.8666C16.2581 15.9284 17.6212 18.1591 19.2152 20.8235ZM43.9243 34.5687V37.1351H42.317H40.7093L39.1575 34.5484L37.6059 31.9619L40.0835 31.8866C44.1806 31.7625 43.9243 31.5836 43.9243 34.5687ZM27.2737 34.3292C28.0176 35.6425 28.672 36.8111 28.7274 36.9261C28.7831 37.0411 25.9544 37.1351 22.4417 37.1351H16.0551V34.5383V31.9414H20.9879H25.9205L27.2737 34.3292Z" fill="#0B7D35"/>
</svg>
